HIERARCHY
ROOT Hips
{
	OFFSET 0.000000 0.000000 0.000000
	CHANNELS 6 Xposition Yposition Zposition Zrotation Yrotation Xrotation 
	JOINT LHipJoint
	{
		OFFSET 0.000000 0.000000 0.000000
		CHANNELS 3 Zrotation Yrotation Xrotation
		JOINT LeftUpLeg
		{
			OFFSET 1.363060 -1.794630 0.839290
			CHANNELS 3 Zrotation Yrotation Xrotation
			JOINT LeftLeg
			{
				OFFSET 2.448110 -6.726130 0.000000
				CHANNELS 3 Zrotation Yrotation Xrotation
				JOINT LeftFoot
				{
					OFFSET 2.562200 -7.039590 0.000000
					CHANNELS 3 Zrotation Yrotation Xrotation
					JOINT LeftToeBase
					{
						OFFSET 0.157640 -0.433110 2.322550
						CHANNELS 3 Zrotation Yrotation Xrotation
						End Site
						{
							OFFSET 0.000000 0.000000 0.000000
						}
					}
				}
			}
		}
	}
	JOINT RHipJoint
	{
		OFFSET 0.000000 0.000000 0.000000
		CHANNELS 3 Zrotation Yrotation Xrotation
		JOINT RightUpLeg
		{
			OFFSET -1.305520 -1.794630 0.839290
			CHANNELS 3 Zrotation Yrotation Xrotation
			JOINT RightLeg
			{
				OFFSET -2.542530 -6.985550 0.000000
				CHANNELS 3 Zrotation Yrotation Xrotation
				JOINT RightFoot
				{
					OFFSET -2.568260 -7.056230 0.000000
					CHANNELS 3 Zrotation Yrotation Xrotation
					JOINT RightToeBase
					{
						OFFSET -0.164730 -0.452590 2.363150
						CHANNELS 3 Zrotation Yrotation Xrotation
						End Site
						{
							OFFSET 0.000000 0.000000 0.000000
						}
					}
				}
			}
		}
	}
}
MOTION
Frames: 30
Frame Time: 0.008333
-20.884953 17.533184 0.161299 35.317939 81.197286 62.922918 -7.823074 1.301516 4.446307 -18.542881 -3.843312 -63.517494 -0.210002 3.097616 55.776152 1.314399 6.876027 1.870200 1.609800 -0.000000 -35.460600 13.377814 -4.925510 3.450265 -1.175916 -9.163275 -4.322410 1.513952 0.160720 -1.576304 0.289468 5.068408 21.516526 2.163700 0.000001 -64.806300
-20.657670 17.622330 0.158157 35.379403 81.281459 62.877560 -7.735508 1.509578 4.604272 -18.834388 -3.850394 -62.453887 -0.508312 2.918784 52.473057 1.155624 6.212317 2.726224 1.624099 0.000000 -36.569900 13.494351 -5.013502 3.347748 -1.523996 -9.838482 -3.911535 1.454332 0.092489 -1.354996 0.206186 4.819722 22.483888 2.154300 -0.000000 -63.257600
-20.431890 17.700049 0.153773 35.372528 81.431328 62.770051 -7.664201 1.689572 4.754468 -19.005448 -3.875684 -61.365088 -0.816402 2.730569 49.200781 1.017375 5.646415 3.287272 1.612699 -0.000000 -37.435899 13.559033 -5.092280 3.265905 -1.753099 -10.175451 -3.422845 1.369181 0.036326 -0.896632 0.095848 3.923148 22.715974 1.761700 0.000001 -61.809200
-20.207029 17.765666 0.148318 35.341745 81.637365 62.652165 -7.602711 1.841765 4.907278 -19.065750 -3.944602 -60.281472 -1.129368 2.529582 45.999474 0.904875 5.196707 3.552315 1.589299 0.000000 -38.109400 13.581026 -5.157902 3.200579 -1.875350 -10.232671 -2.916304 1.262759 -0.014678 -0.111522 -0.034923 2.550662 22.241138 1.090300 0.000000 -60.388000
-19.982974 17.819202 0.141116 35.211677 81.918918 62.455296 -7.562625 1.953216 5.057250 -18.983032 -4.041226 -59.240585 -1.437812 2.315511 42.928356 0.818501 4.844728 3.525138 1.554500 -0.000000 -38.605000 13.545309 -5.219747 3.164044 -1.836874 -9.929163 -2.342426 1.133241 -0.060686 0.897584 -0.198093 0.738065 21.264932 0.209499 -0.000000 -59.175000
-19.759495 17.860547 0.132594 35.045175 82.259801 62.235760 -7.536108 2.028889 5.209004 -18.786522 -4.173131 -58.249950 -1.734482 2.087537 40.017638 0.759716 4.589762 3.239923 1.514000 -0.000000 -38.962500 13.468495 -5.269451 3.140928 -1.669175 -9.394455 -1.778755 0.992523 -0.110736 2.239617 -0.385244 -1.221637 19.862086 -0.692400 0.000000 -58.087000
-19.536599 17.889895 0.122795 34.852054 82.653988 61.995289 -7.523409 2.070165 5.359814 -18.492843 -4.325578 -57.317204 -2.011004 1.848357 37.300232 0.726239 4.412097 2.744412 1.466900 0.000000 -39.217600 13.358350 -5.307193 3.121836 -1.383985 -8.710924 -1.262281 0.851619 -0.172734 3.942692 -0.587569 -3.116715 18.185394 -1.482600 0.000000 -57.183700
-19.314411 17.907650 0.111500 34.591925 83.102631 61.684595 -7.531272 2.076651 5.501310 -18.112249 -4.465400 -56.449317 -2.259001 1.604163 34.810717 0.711836 4.275597 2.095975 1.408500 0.000000 -39.402200 13.216208 -5.339750 3.101526 -0.979471 -7.933550 -0.806404 0.720273 -0.253731 5.983817 -0.793575 -4.811627 16.422897 -2.094600 0.000000 -56.633500
-19.093484 17.914028 0.099000 34.285930 83.587513 61.311648 -7.557356 2.056816 5.628454 -17.684174 -4.572339 -55.635040 -2.474347 1.362081 32.564513 0.710376 4.158604 1.363446 1.339300 0.000000 -39.543400 13.057695 -5.369259 3.065258 -0.504037 -7.188537 -0.468460 0.610368 -0.363633 8.411487 -0.977294 -6.122082 14.681177 -2.467701 0.000000 -56.436500
-18.874206 17.909278 0.085780 33.957705 84.089957 60.890425 -7.598021 2.019969 5.733049 -17.251656 -4.623070 -54.858992 -2.656606 1.130286 30.569436 0.714038 4.037622 0.614970 1.261099 0.000000 -39.651999 12.898121 -5.401651 3.008054 -0.005503 -6.545655 -0.268524 0.524439 -0.507588 11.197158 -1.119111 -6.973831 13.082377 -2.611600 0.000000 -56.695301
-18.656786 17.893434 0.071878 33.585219 84.593083 60.392831 -7.653407 1.972669 5.808545 -16.844729 -4.600084 -54.112110 -2.805850 0.916985 28.835625 0.716575 3.898325 -0.094255 1.177400 -0.000000 -39.732700 12.747326 -5.440975 2.925584 0.472393 -6.060892 -0.235624 0.463246 -0.688225 14.340103 -1.202614 -7.322554 11.661302 -2.550800 0.000000 -57.265000
-18.441969 17.866350 0.058044 33.224002 85.070196 59.875484 -7.713470 1.925913 5.852853 -16.504869 -4.507639 -53.378741 -2.926167 0.727415 27.355143 0.715158 3.746732 -0.719133 1.095800 -0.000000 -39.774300 12.623750 -5.487332 2.819504 0.868643 -5.760415 -0.386715 0.419216 -0.903513 17.812389 -1.222990 -7.185195 10.420774 -2.328200 0.000000 -57.985400
-18.229746 17.827949 0.044418 32.844102 85.515141 59.311460 -7.778422 1.881990 5.860624 -16.241947 -4.338445 -52.658983 -3.019387 0.567187 26.140674 0.707136 3.577386 -1.246742 1.017700 0.000000 -39.748200 12.528684 -5.542581 2.698730 1.175202 -5.603331 -0.692510 0.381258 -1.145806 21.528374 -1.192986 -6.682552 9.360425 -2.014100 0.000001 -58.753599
-18.020213 17.777927 0.031379 32.480770 85.919745 58.741784 -7.842569 1.845074 5.833118 -16.065032 -4.106596 -51.953872 -3.087996 0.439028 25.200155 0.694279 3.401314 -1.687173 0.944900 0.000000 -39.616200 12.467223 -5.603892 2.569564 1.378848 -5.560059 -1.131381 0.338836 -1.406766 25.423288 -1.129671 -5.940821 8.438412 -1.661599 0.000000 -59.445300
-17.813455 17.716023 0.019126 32.178032 86.284179 58.217968 -7.901598 1.816827 5.775236 -15.968352 -3.835333 -51.274636 -3.132751 0.344423 24.550953 0.681239 3.234195 -2.077872 0.876900 0.000000 -39.336700 12.439926 -5.667471 2.436275 1.482045 -5.600448 -1.679382 0.283597 -1.678535 29.440770 -1.052641 -5.100348 7.600391 -1.316000 -0.000000 -59.977600
-17.609251 17.641964 0.007827 32.019382 86.614575 57.826790 -7.950728 1.798183 5.691343 -15.944326 -3.544806 -50.634465 -3.154709 0.284398 24.220917 0.672970 3.084040 -2.482576 0.809001 0.000000 -38.854000 12.445922 -5.729827 2.300075 1.493952 -5.705186 -2.301255 0.209268 -1.954208 33.517020 -0.980199 -4.299828 6.807349 -1.013299 0.000000 -60.421600
-17.406967 17.555382 -0.002208 32.173739 86.912081 57.754807 -7.978545 1.793259 5.598882 -15.982536 -3.289941 -50.064556 -3.154288 0.257155 24.229875 0.679588 2.984608 -2.971500 0.739900 0.000000 -38.134200 12.491424 -5.784940 2.162149 1.409111 -5.874420 -3.007850 0.111754 -2.229632 37.642661 -0.923579 -3.633771 5.999826 -0.769599 -0.000000 -60.753400
-17.206735 17.456216 -0.011010 32.784429 87.185896 58.155858 -7.978989 1.802836 5.509358 -16.068838 -3.106110 -49.598115 -3.131626 0.262480 24.613289 0.708636 2.950050 -3.628143 0.663000 -0.000001 -37.145700 12.576460 -5.828963 2.022345 1.235820 -6.106906 -3.792519 -0.011524 -2.501528 41.793533 -0.890819 -3.180360 5.150667 -0.594800 0.000000 -61.041300
-17.007925 17.344644 -0.018676 34.013002 87.441986 59.205238 -7.945500 1.828322 5.436169 -16.190732 -3.031816 -49.274345 -3.087206 0.300002 25.403383 0.767758 2.995089 -4.529551 0.570500 0.000000 -35.877200 12.702597 -5.857251 1.881314 0.977253 -6.405809 -4.663258 -0.162251 -2.767493 45.960772 -0.884760 -2.975977 4.241704 -0.485700 0.000000 -61.305700
-16.810820 17.221206 -0.025253 36.048827 87.680784 61.100639 -7.871892 1.872123 5.388654 -16.342832 -3.095779 -49.120166 -3.022423 0.369550 26.621290 0.863305 3.130206 -5.734186 0.452600 -0.000000 -34.355000 12.872265 -5.863839 1.738400 0.628788 -6.777406 -5.621880 -0.341421 -3.025241 50.132372 -0.904072 -3.016569 3.270585 -0.429400 -0.000001 -61.543800
-16.615167 17.086627 -0.031581 38.857493 87.907164 63.833038 -7.767414 1.930383 5.381429 -16.496675 -3.320964 -49.201637 -2.935807 0.473634 28.300397 1.000458 3.357502 -7.284433 0.296400 -0.000000 -32.560400 13.073554 -5.846312 1.602754 0.220556 -7.197905 -6.707108 -0.549251 -3.272681 54.321678 -0.945673 -3.277732 2.239435 -0.409700 0.000000 -61.645600
-16.421268 16.942510 -0.037674 42.646842 88.107725 67.599600 -7.630753 2.007023 5.411935 -16.660797 -3.707296 -49.498957 -2.830715 0.611694 30.415106 1.181022 3.678935 -9.173633 0.089500 0.000000 -30.602300 13.307454 -5.796292 1.469142 -0.269176 -7.675810 -7.894623 -0.784964 -3.507772 58.498348 -1.001677 -3.686835 1.168799 -0.404800 0.000000 -61.589200
-16.229691 16.790628 -0.044307 47.356908 88.276553 72.346036 -7.479240 2.098173 5.482209 -16.817556 -4.245906 -50.024037 -2.707367 0.784674 32.940194 1.403824 4.088604 -11.369407 -0.179800 0.000000 -28.544400 13.557649 -5.711253 1.341612 -0.821302 -8.186842 -9.193546 -1.046564 -3.729515 62.654149 -1.063930 -4.169586 0.076086 -0.397900 -0.000000 -61.280300
-16.040763 16.633368 -0.051984 52.930921 88.402855 78.008534 -7.331020 2.200344 5.587005 -16.959941 -4.912078 -50.750059 -2.567703 0.990713 35.810640 1.663198 4.577945 -13.802832 -0.518500 -0.000000 -26.493400 13.808735 -5.589665 1.219906 -1.428684 -8.712174 -10.594408 -1.331005 -3.938555 66.767932 -1.122632 -4.639921 -1.019471 -0.376700 -0.000000 -60.670300
-15.855366 16.473500 -0.061147 59.250062 88.476190 84.455096 -7.205973 2.308302 5.716820 -17.086076 -5.669138 -51.627082 -2.414654 1.225127 38.933224 1.948640 5.132495 -16.380423 -0.926500 0.000000 -24.572700 14.044147 -5.433347 1.102200 -2.084559 -9.233150 -12.080085 -1.634508 -4.137526 70.812688 -1.168122 -5.017427 -2.101230 -0.335600 0.000000 -59.741400
-15.673803 16.314071 -0.071923 66.145575 88.486551 91.499257 -7.121678 2.415344 5.858704 -17.199871 -6.472256 -52.586204 -2.252548 1.480250 42.194337 2.245430 5.729942 -18.996958 -1.394800 -0.000000 -22.918300 14.249138 -5.247124 0.984855 -2.783235 -9.735797 -13.628133 -1.953087 -4.330848 74.756487 -1.192273 -5.238511 -3.157068 -0.276000 0.000000 -58.511000
-15.496833 16.158486 -0.084293 73.373212 88.430476 98.873066 -7.091225 2.512451 5.996826 -17.306662 -7.268041 -53.545601 -2.086953 1.745738 45.474357 2.536311 6.337492 -21.554426 -1.905700 -0.000000 -21.612100 14.412116 -5.040118 0.865788 -3.511117 -10.201906 -15.209822 -2.283478 -4.523758 78.562997 -1.190602 -5.269834 -4.170762 -0.205100 -0.000000 -57.079200
-15.324585 16.009890 -0.097884 80.729586 88.298952 106.349771 -7.119024 2.592873 6.115761 -17.420969 -8.011782 -54.418896 -1.925036 2.010595 48.654320 2.804405 6.919214 -23.962992 -2.433300 -0.000001 -20.762800 14.528003 -4.820043 0.739301 -4.266158 -10.631416 -16.795563 -2.622475 -4.721405 82.194994 -1.161124 -5.099668 -5.137745 -0.131900 0.000000 -55.494900
-15.157094 15.871357 -0.112191 87.990347 88.089994 113.681165 -7.203270 2.650260 6.200967 -17.552099 -8.659096 -55.124185 -1.774383 2.263703 51.631595 3.035155 7.434509 -26.158811 -2.947501 0.000000 -20.399900 14.596559 -4.596257 0.603231 -5.035432 -11.019875 -18.354107 -2.967438 -4.927190 85.614870 -1.106429 -4.749285 -6.046797 -0.066200 -0.000000 -53.869000
-14.994051 15.745516 -0.126702 94.990491 87.803663 120.680469 -7.336813 2.681007 6.240392 -17.705508 -9.174987 -55.590988 -1.642371 2.495357 54.322828 3.218009 7.845887 -28.100182 -3.417900 0.000000 -20.520900 14.621759 -4.375894 0.455579 -5.805296 -11.368163 -19.856472 -3.315333 -5.142235 88.788079 -1.032087 -4.260727 -6.887963 -0.015500 0.000000 -52.298900
